<svg width="189" height="149" viewBox="0 0 189 149" fill="none" xmlns="http://www.w3.org/2000/svg">
<path d="M110.382 2.49265C112.725 0.149507 116.524 0.149502 118.868 2.49265L186.632 70.2574C188.975 72.6005 188.975 76.3995 186.632 78.7426L118.868 146.507C116.524 148.851 112.726 148.851 110.382 146.507L101.076 137.201C98.7328 134.858 98.7328 131.059 101.076 128.716L142.583 87.2083L6.12499 87.2084C2.81128 87.2084 0.124994 84.5221 0.124994 81.2084L0.124993 67.7917C0.124992 64.478 2.81128 61.7917 6.12499 61.7917L142.583 61.7917L101.076 20.2843C98.7328 17.9412 98.7328 14.1422 101.076 11.799L110.382 2.49265Z" fill="#34D6E2"/>
</svg>
